<?xml version="1.0" encoding="UTF-8"?>
<svg width="64px" height="22px" viewBox="0 0 64 22" version="1.1" xmlns="http://www.w3.org/2000/svg" xmlns:xlink="http://www.w3.org/1999/xlink">
    <!-- Generator: Sketch 52.2 (67145) - http://www.bohemiancoding.com/sketch -->
    <title>cielo_logo</title>
    <desc>Created with Sketch.</desc>
    <g id="desktop" stroke="none" stroke-width="1" fill="none" fill-rule="evenodd">
        <g id="tripona-desk" transform="translate(-1120.000000, -4360.000000)">
            <g id="footer" transform="translate(0.000000, 2423.000000)">
                <g id="final">
                    <g id="cielo_logo" transform="translate(1120.000000, 1937.000000)">
                        <g id="Group" fill="#000000">
                            <path d="M34.1753553,16.4705882 C33.2260397,17.4166406 31.9221588,17.9962286 30.4847639,17.9732845 C29.499354,17.9581072 28.5874643,17.6577675 27.8105604,17.1580563 L25.8823529,20.2727541 C27.2022836,21.1178381 28.7568623,21.6206845 30.4298865,21.6459801 C32.8685308,21.6841015 35.0887168,20.7094758 36.7058824,19.1030323 L34.1753553,16.4705882 Z" id="Fill-1"></path>
                            <path d="M25.2089013,13.2908871 C25.1859722,13.089751 25.1735837,12.8890907 25.1771429,12.6823126 C25.2199209,9.91079406 27.5167946,7.69829661 30.3085934,7.74037274 C31.8289598,7.76402782 33.1775296,8.45321986 34.0876413,9.52300034 L25.2089013,13.2908871 Z M30.3621858,4.23629448 C25.6226507,4.1649214 21.7213602,7.92172834 21.6479873,12.6293606 C21.6221835,14.3926835 22.1354518,16.037799 23.0375555,17.4117647 L38.5882353,10.8132896 C37.7132358,7.0941405 34.3819544,4.29679166 30.3621858,4.23629448 Z" id="Fill-3"></path>
                            <path d="M12.1192884,16.2721579 C11.2084654,17.1507408 9.96241833,17.6936155 8.58728095,17.6936155 C5.79413587,17.6936155 3.53043238,15.4601762 3.53043238,12.7052069 C3.53043238,9.95158855 5.79413587,7.71733859 8.58728095,7.71733859 C9.27519206,7.71733859 9.92995742,7.85358076 10.5280874,8.10039726 L11.8815842,4.88225866 C10.8672834,4.46650727 9.75559986,4.23529412 8.58728095,4.23529412 C3.84387879,4.23529412 0,8.02771676 0,12.7052069 C0,17.3836427 3.84387879,21.1764706 8.58728095,21.1764706 C10.9224121,21.1764706 13.0396306,20.2557383 14.5882353,18.7632888 L12.1192884,16.2721579 Z" id="Fill-5"></path>
                            <path d="M43.2612622,0.470588235 L43.2612622,17.1582756 L46.1176471,18.3590062 L44.7686002,21.6470588 L41.9422138,20.4588029 C41.3021104,20.1811916 40.8731527,19.7538854 40.550244,19.2710293 C40.2345459,18.7832799 40,18.1088942 40,17.2032117 L40,0.470588235 L43.2612622,0.470588235 Z" id="Fill-7"></path>
                            <path d="M16.0339675,21.1764706 L16.0339675,10.5404931 L13.1764706,9.35697487 L14.5258385,6.11764706 L17.3526448,7.28846634 C17.9929974,7.56207176 18.4213055,7.98433 18.745905,8.45840281 C19.0609776,8.93899489 19.2941176,9.6051144 19.2941176,10.4958769 L19.2941176,21.1764706 L16.0339675,21.1764706 Z" id="Fill-9"></path>
                        </g>
                        <g id="Group-13" transform="translate(15.529412, 0.000000)">
                            <polygon id="Clip-12" points="0.0379831933 0.0211092437 4.66494118 0.0211092437 4.66494118 4.6478521 0.0379831933 4.6478521"></polygon>
                            <path d="M0.0379831933,2.33403697 C0.0379831933,1.05672605 1.07354622,0.0210957983 2.35119328,0.0210957983 C3.62937815,0.0210957983 4.66494118,1.05672605 4.66494118,2.33403697 C4.66494118,3.61228908 3.62937815,4.6478521 2.35119328,4.6478521 C1.07354622,4.6478521 0.0379831933,3.61228908 0.0379831933,2.33403697" id="Fill-11" fill="#00AEEF"></path>
                        </g>
                        <g id="Group-16" transform="translate(49.411765, 4.235294)">
                            <polygon id="Clip-15" points="0.0396509618 0.010395768 14.5490337 0.010395768 14.5490337 12.2283268 0.0396509618 12.2283268"></polygon>
                            <path d="M8.08820853,4.01198693 C10.6305024,5.21240523 11.6998684,8.2108 10.4782593,10.709383 L13.6904366,12.2283268 C15.7662526,7.98567059 13.9489456,2.89218562 9.63151938,0.852766013 C6.35186284,-0.695950327 2.57516922,-0.0361281046 0.0396509618,2.23331503 L2.44000335,4.8263817 C3.93436409,3.49021961 6.15647728,3.09855425 8.08820853,4.01198693" id="Fill-14" fill="#00AEEF"></path>
                        </g>
                        <g id="Group-19" transform="translate(46.588235, 9.411765)">
                            <polygon id="Clip-18" points="0.0396411819 0.0168983007 14.5495177 0.0168983007 14.5495177 12.2352941 0.0396411819 12.2352941"></polygon>
                            <path d="M6.49936995,8.23459765 C3.95783663,7.03234405 2.88833231,4.0344251 4.10931921,1.53591007 L0.897349317,0.0168983007 C-1.17639253,4.26091399 0.638840256,9.35310745 4.9560591,11.3925271 C8.23571564,12.9426029 12.0146217,12.2810133 14.5495177,10.0102787 L12.1492345,7.4188434 C10.655496,8.75507346 8.4311012,9.14585516 6.49936995,8.23459765" id="Fill-17" fill="#000000"></path>
                        </g>
                    </g>
                </g>
            </g>
        </g>
    </g>
</svg>